<?xml version="1.0" encoding="utf-8"?>
<!-- Generator: Adobe Illustrator 25.1.0, SVG Export Plug-In . SVG Version: 6.00 Build 0)  -->
<svg version="1.1" id="Layer_1" xmlns="http://www.w3.org/2000/svg" xmlns:xlink="http://www.w3.org/1999/xlink" x="0px" y="0px"
	 viewBox="0 0 800 600" style="enable-background:new 0 0 800 600;" xml:space="preserve">
<style type="text/css">
	.st0{fill:#FFB035;}
</style>
<g transform="matrix( 1, 0, 0, 1, 0,0) ">
	<g>
		<g id="Layer0_0_FILL">
			<path d="M113.6,285.3L270,207.8l65.6,188.7l144.6-37.9l0.2-0.1L589,330l-109.8,22.2c-2.1-10.5-4.3-21-6.7-31.6
				c11.3-3.1,22.6-6.4,33.8-9.9c-11.5,2.2-22.9,4.6-34.4,7.1c-2.5-10.9-5-21.8-7.7-32.7c11.8-3.3,23.6-6.8,35.5-10.4
				c-12.1,2.3-24.2,4.8-36.1,7.5c-2.7-10.6-5.4-21.3-8.3-31.9c12.7-3.5,25.4-7.3,38.1-11.1c-13,2.5-26,5.2-39,8.1
				c-3.1-11.5-6.4-23-9.8-34.5c2.2,11.7,4.5,23.5,6.9,35.2c-10.8,2.3-21.5,4.8-32.1,7.5c-3.3-12.2-6.8-24.3-10.4-36.4
				c2.3,12.4,4.8,24.7,7.4,37.1c-10.8,2.7-21.6,5.5-32.3,8.4c-3.5-12.9-7.2-25.9-11-38.8c2.4,13.2,5,26.4,7.9,39.6
				c-11.8,3.2-23.5,6.5-35.3,10c12-2.2,24-4.6,35.9-7c2.3,10.6,4.8,21.4,7.4,32.1c-12.4,3.3-24.7,6.8-37.1,10.5
				c12.6-2.3,25.2-4.8,37.8-7.5c2.7,10.8,5.5,21.6,8.5,32.3c-13.2,3.5-26.5,7.2-39.6,11.1c13.5-2.5,27-5.2,40.5-8.1
				c2.5,9.3,5.2,18.5,8.1,27.9l-64.1,12.8l-68-189.2L113.6,285.3 M393.1,299.3c-2.6-10.6-5.3-21.3-8.2-31.9
				c10.8-2.3,21.6-4.8,32.4-7.4c2.2,10.4,4.6,20.8,7.1,31.2C414.1,293.8,403.6,296.5,393.1,299.3 M420.5,259.3
				c10.6-2.6,21.2-5.3,31.8-8.2c2.3,10.6,4.7,21.3,7.3,31.9c-10.4,2.3-20.8,4.7-31.1,7.2C425.9,279.9,423.2,269.6,420.5,259.3
				 M436.8,325.9c-2.3-10.6-4.8-21.1-7.3-31.7c10.3-2.5,20.6-5.2,30.9-8.1c2.6,10.8,5.4,21.6,8.4,32.3
				C458.1,320.8,447.4,323.3,436.8,325.9 M425.5,295.2c2.6,10.5,5.3,20.9,8.2,31.5c-10.8,2.6-21.5,5.3-32.2,8.2
				c-2.4-10.8-4.9-21.6-7.5-32.3C404.4,300.2,414.9,297.8,425.5,295.2 M434.7,330.5c2.7,9.6,5.5,19.2,8.4,28.8l-35.1,7
				c-1.9-9.4-3.9-18.9-5.9-28.2C413,335.7,423.8,333.2,434.7,330.5 M443.8,359.2c-2-9.9-4-19.7-6.2-29.5c10.6-2.7,21.3-5.5,31.9-8.4
				c2.8,10.3,5.7,20.6,8.8,30.9L443.8,359.2z"/>
			<path class="st0" d="M410.9,408.9c0-5.3-1.9-9.9-5.6-13.6c-3.7-3.7-8.3-5.6-13.6-5.6c-5.3,0-9.9,1.9-13.6,5.6
				c-3.7,3.7-5.6,8.3-5.6,13.6c0,5.3,1.9,9.9,5.6,13.6c3.7,3.7,8.3,5.6,13.6,5.6c5.3,0,9.9-1.9,13.6-5.6
				C409,418.7,410.9,414.2,410.9,408.9 M511.3,402.6c5.3,0,9.9-1.9,13.6-5.6c3.7-3.7,5.6-8.3,5.6-13.6c0-5.3-1.9-9.9-5.6-13.6
				c-3.7-3.7-8.3-5.6-13.6-5.6c-5.3,0-9.9,1.9-13.6,5.6c-3.7,3.7-5.6,8.3-5.6,13.6c0,5.3,1.9,9.9,5.6,13.6
				C501.5,400.7,506,402.6,511.3,402.6 M525.8,183.5l7.6,129.8l6.7-148.8l-239.1,72.3L525.8,183.5z"/>
		</g>
	</g>
</g>
</svg>
