<svg id="Layer_1" data-name="Layer 1" xmlns="http://www.w3.org/2000/svg" viewBox="0 0 448.83 246.55"><defs><style>.cls-1{fill:#1a1a1a;}.cls-2{fill:#fbb03b;}</style></defs><path class="cls-1" d="M744.86,943.21q4.56-2.84,9.14-5.62l9.16-5.58L781.54,921,800,910q9.22-5.47,18.47-10.89L837,888.33l18.56-10.73q18.56-10.71,37.2-21.29l5.23-3,2.11,5.8q8.1,22.17,16.11,44.36c5.36,14.8,10.6,29.63,15.88,44.45l7.83,22.26q3.93,11.13,7.79,22.28l7.75,22.29,7.66,22.32-6.92-3.82,29.58-6.55c9.86-2.19,19.73-4.31,29.6-6.44q29.62-6.4,59.3-12.53c19.79-4.06,39.58-8.11,59.43-11.93l14.87-2.9,14.9-2.81q14.89-2.82,29.84-5.43-14.58,4.19-29.21,8.16l-14.63,4-14.65,3.9c-19.52,5.24-39.09,10.25-58.66,15.25s-39.18,9.87-58.8,14.66q-14.72,3.6-29.45,7.14l-29.46,7L953.7,1046l-1.79-5L944,1018.76l-7.83-22.26q-3.93-11.12-7.79-22.28l-7.74-22.29c-5.09-14.88-10.24-29.75-15.26-44.66s-10-29.82-15-44.74l7.34,2.82q-19,10-38,19.9l-19,9.86-19.06,9.8c-6.36,3.27-12.74,6.48-19.12,9.7l-19.14,9.67-19.21,9.53-9.64,4.72C751.3,940.1,748.09,941.67,744.86,943.21Z" transform="translate(-744.86 -830.06)"/><path class="cls-2" d="M921.64,897.94c17.81-6.64,35.78-12.67,53.8-18.55s36.11-11.47,54.26-16.89,36.32-10.7,54.57-15.76c9.1-2.57,18.25-5,27.38-7.52l13.72-3.65q6.86-1.85,13.73-3.61l7.45-1.9-.16,7.49q-.73,32.73-2.26,65.44-.77,16.37-1.84,32.72c-.71,10.91-1.53,21.81-2.58,32.71-.89-10.91-1.56-21.83-2.11-32.74s-1-21.83-1.38-32.74q-1.11-32.75-1.34-65.47l7.28,5.58q-6.81,2-13.63,4l-13.66,3.9c-9.12,2.54-18.22,5.13-27.36,7.59Q1060.12,866,1032.58,873t-55.24,13.32C958.85,890.46,940.33,894.51,921.64,897.94Z" transform="translate(-744.86 -830.06)"/><circle class="cls-2" cx="261.72" cy="229.11" r="17.43"/><circle class="cls-2" cx="374.82" cy="204.73" r="17.43"/><line class="cls-1" x1="220.5" y1="102.81" x2="357.97" y2="69.18"/><path class="cls-1" d="M965.36,932.87c11.26-3.61,22.61-6.83,34-9.92,5.68-1.58,11.4-3,17.1-4.53l17.16-4.31,17.21-4.1c5.76-1.29,11.49-2.66,17.26-3.88,11.53-2.52,23.09-4.9,34.74-6.89-11.25,3.61-22.61,6.84-34,9.92-5.69,1.59-11.41,3-17.11,4.53L1034.57,918l-17.21,4.09c-5.75,1.3-11.49,2.66-17.26,3.88C988.57,928.49,977,930.87,965.36,932.87Z" transform="translate(-744.86 -830.06)"/><line class="cls-1" x1="226.78" y1="136.44" x2="364.26" y2="102.81"/><path class="cls-1" d="M971.64,966.5c11.26-3.61,22.61-6.83,34-9.92,5.68-1.58,11.4-3,17.1-4.53l17.16-4.31,17.21-4.1c5.76-1.29,11.49-2.66,17.27-3.88,11.52-2.52,23.08-4.9,34.74-6.89-11.26,3.61-22.62,6.84-34,9.92-5.69,1.59-11.41,3-17.11,4.53l-17.16,4.31-17.21,4.09c-5.75,1.3-11.49,2.66-17.26,3.88C994.85,962.12,983.29,964.5,971.64,966.5Z" transform="translate(-744.86 -830.06)"/><line class="cls-1" x1="233.06" y1="170.07" x2="370.54" y2="136.44"/><path class="cls-1" d="M977.92,1000.13c11.26-3.61,22.61-6.83,34-9.92,5.68-1.58,11.4-3,17.1-4.53l17.16-4.31,17.21-4.1c5.76-1.29,11.49-2.66,17.27-3.88,11.52-2.52,23.08-4.9,34.74-6.89-11.26,3.61-22.62,6.84-34,9.92-5.69,1.58-11.41,3-17.11,4.53l-17.16,4.31-17.21,4.09c-5.75,1.3-11.49,2.66-17.26,3.88C1001.13,995.75,989.57,998.13,977.92,1000.13Z" transform="translate(-744.86 -830.06)"/><line class="cls-1" x1="312.33" y1="44.61" x2="345.96" y2="182.09"/><path class="cls-1" d="M1057.19,874.67c3.61,11.26,6.83,22.61,9.92,34,1.58,5.68,3,11.4,4.53,17.1l4.31,17.16,4.1,17.21c1.29,5.75,2.66,11.49,3.88,17.26,2.52,11.53,4.9,23.09,6.89,34.74-3.61-11.26-6.84-22.61-9.92-34-1.58-5.68-3-11.4-4.53-17.1l-4.31-17.16L1068,926.67c-1.3-5.76-2.66-11.49-3.88-17.27C1061.57,897.88,1059.19,886.32,1057.19,874.67Z" transform="translate(-744.86 -830.06)"/><line class="cls-1" x1="278.7" y1="50.89" x2="312.33" y2="188.37"/><path class="cls-1" d="M1023.56,881c3.61,11.26,6.83,22.61,9.92,34,1.58,5.68,3,11.4,4.53,17.1l4.31,17.16,4.1,17.21c1.29,5.75,2.66,11.49,3.88,17.26,2.52,11.53,4.9,23.09,6.89,34.74-3.61-11.26-6.83-22.61-9.92-34-1.58-5.68-3-11.4-4.53-17.1l-4.3-17.16-4.1-17.21c-1.3-5.76-2.66-11.49-3.88-17.27C1027.94,904.16,1025.56,892.6,1023.56,881Z" transform="translate(-744.86 -830.06)"/><line class="cls-1" x1="245.07" y1="57.17" x2="278.7" y2="194.65"/><path class="cls-1" d="M989.93,887.23c3.61,11.26,6.83,22.61,9.92,34,1.58,5.68,3,11.4,4.53,17.1l4.31,17.16,4.1,17.21c1.29,5.75,2.66,11.49,3.88,17.26,2.52,11.53,4.9,23.09,6.89,34.74-3.61-11.25-6.83-22.61-9.92-34-1.58-5.69-3-11.41-4.53-17.11l-4.3-17.16-4.1-17.21c-1.3-5.75-2.66-11.49-3.88-17.26C994.31,910.44,991.93,898.88,989.93,887.23Z" transform="translate(-744.86 -830.06)"/></svg>