<?xml version="1.0" encoding="utf-8"?>
<!-- Generator: Adobe Illustrator 23.0.3, SVG Export Plug-In . SVG Version: 6.00 Build 0)  -->
<svg version="1.1" id="Layer_1" xmlns="http://www.w3.org/2000/svg" xmlns:xlink="http://www.w3.org/1999/xlink" x="0px" y="0px"
	 viewBox="0 0 2000 2000" style="enable-background:new 0 0 2000 2000;" xml:space="preserve">
<style type="text/css">
	.st0{fill:#FBB03B;}
	.st1{fill:#1A1A1A;}
</style>
<g>
	<g>
		<path class="st0" d="M507.51,1163.37c0,2.36,0.07,4.33,0.21,5.9c0.14,1.57,0.64,2.86,1.49,3.85s2.2,1.78,4.03,2.36
			c1.83,0.58,4.41,1.1,7.74,1.56c0.97,0.19,1.46,0.9,1.46,2.15c0,0.56-0.15,1.04-0.45,1.46c-0.3,0.42-0.64,0.62-1.01,0.62
			c-4.07,0-7.67-0.16-10.79-0.49c-3.12-0.32-6.12-0.49-8.99-0.49c-3.01,0-6,0.16-8.99,0.49c-2.98,0.32-6,0.49-9.06,0.49
			c-0.93,0-1.39-0.69-1.39-2.08c0-1.25,0.51-1.97,1.53-2.15c3.01-0.42,5.26-0.98,6.77-1.7c1.5-0.72,2.56-1.7,3.16-2.95
			c0.6-1.25,0.9-3.98,0.9-8.19v-20.75c0-7.45-0.24-12.34-0.73-14.68c-0.49-2.34-1.4-3.98-2.74-4.93c-1.34-0.95-3.93-1.56-7.77-1.84
			c-0.46,0-0.81-0.23-1.04-0.69c-0.23-0.46-0.35-0.95-0.35-1.46c0-0.46,0.14-0.92,0.42-1.39s0.65-0.69,1.11-0.69
			c5.78-0.46,11.82-1.25,18.12-2.36l2.5-0.35c1.71,0,2.57,0.86,2.57,2.57l-0.42,9.37c0,0.19,0.09,0.28,0.28,0.28
			c0.18,0,0.32-0.09,0.42-0.28c1.62-4.16,3.88-7.36,6.77-9.58c2.89-2.22,6.74-3.33,11.56-3.33c3.98,0,6.92,0.94,8.82,2.81
			c1.9,1.87,2.85,4.34,2.85,7.39c0,1.71-0.61,3.25-1.84,4.62c-1.23,1.37-2.97,2.05-5.24,2.05c-2.18,0-3.69-0.52-4.55-1.56
			c-0.86-1.04-1.28-2.16-1.28-3.37c0-2.87-1.37-4.3-4.1-4.3c-1.99,0-3.89,0.81-5.69,2.43c-1.8,1.62-3.3,3.68-4.48,6.18
			c-1.18,2.5-1.77,4.61-1.77,6.32V1163.37z"/>
		<path class="st0" d="M586.05,1144.35c-0.46,0-0.72,0.16-0.76,0.49c-0.05,0.32-0.07,0.72-0.07,1.18c0,8.7,1.95,15.35,5.87,19.95
			c3.91,4.61,9.54,6.91,16.9,6.91c7.54,0,13.4-1.5,17.56-4.51c0.28-0.28,0.58-0.42,0.9-0.42c0.46,0,0.95,0.32,1.46,0.97
			c0.51,0.65,0.76,1.18,0.76,1.6c0,0.79-1.34,2.4-4.03,4.82c-2.68,2.43-5.67,4.14-8.95,5.14c-3.29,0.99-7.2,1.49-11.73,1.49
			c-10.51,0-18.74-2.99-24.71-8.99c-5.97-5.99-8.95-14.31-8.95-24.95c0-6.25,1.38-11.98,4.13-17.21c2.75-5.23,6.58-9.32,11.49-12.29
			c4.9-2.96,10.37-4.44,16.38-4.44c7.82,0,14.18,2.56,19.09,7.67c4.9,5.11,7.36,11.65,7.36,19.61c0,1.99-0.72,2.99-2.15,2.99H586.05
			z M612.08,1139.36c0.93,0,1.58-0.25,1.98-0.76c0.39-0.51,0.59-1.87,0.59-4.09c0-4.17-1.23-7.76-3.68-10.79
			c-2.45-3.03-5.65-4.55-9.58-4.55c-4.35,0-7.87,1.4-10.55,4.2c-2.68,2.8-4.37,6.86-5.07,12.18l-0.21,2.29
			c0,1.02,0.21,1.53,0.62,1.53H612.08z"/>
		<path class="st0" d="M698.54,1183.02c-1.16,0-1.87-0.19-2.15-0.56c-9.12-18.56-16.52-34.87-22.21-48.93
			c-1.71-4.26-3.03-7.04-3.96-8.36c-0.93-1.32-1.98-2.31-3.16-2.99c-1.18-0.67-2.74-1.14-4.69-1.42c-0.93-0.18-1.39-0.93-1.39-2.22
			c0-1.39,0.42-2.08,1.25-2.08c2.68,0,5.32,0.17,7.91,0.52c2.59,0.35,5.32,0.52,8.19,0.52c2.73,0,5.45-0.17,8.16-0.52
			c2.71-0.35,5.42-0.52,8.16-0.52c0.97,0,1.46,0.69,1.46,2.08c0,0.51-0.12,1.01-0.35,1.49c-0.23,0.49-0.6,0.73-1.11,0.73
			c-2.92,0.19-5.01,0.73-6.28,1.63c-1.27,0.9-1.91,2.21-1.91,3.92c0,1.39,0.37,3.12,1.11,5.21c4.63,12.45,9.32,23.41,14.09,32.9
			c0.18,0.42,0.44,0.63,0.76,0.63c0.42,0,0.72-0.21,0.9-0.63c4.58-9.99,8.86-21.52,12.84-34.57c0.37-1.25,0.56-2.43,0.56-3.54
			c0-2.41-0.74-3.89-2.22-4.44c-1.48-0.56-3.03-0.93-4.65-1.11c-0.46,0-0.8-0.22-1.01-0.66c-0.21-0.44-0.31-0.87-0.31-1.28
			c0-0.56,0.13-1.09,0.38-1.6c0.25-0.51,0.64-0.76,1.14-0.76c2.08,0,4.04,0.17,5.86,0.52c1.83,0.35,3.74,0.52,5.73,0.52
			c2.13,0,4.35-0.17,6.66-0.52c2.31-0.35,4.14-0.52,5.48-0.52c0.46,0,0.81,0.22,1.04,0.66c0.23,0.44,0.35,0.91,0.35,1.42
			c0,0.51-0.12,1.01-0.35,1.49c-0.23,0.49-0.53,0.73-0.9,0.73c-1.99,0.09-3.68,0.57-5.07,1.42c-1.39,0.86-2.59,2-3.61,3.44
			c-1.02,1.43-2.45,4.4-4.3,8.89c-6.34,15.64-13.12,31.63-20.34,47.96C700.43,1182.83,699.74,1183.02,698.54,1183.02z"/>
		<path class="st0" d="M832.88,1146.16c0,11.24-3.02,20.02-9.06,26.34c-6.04,6.32-14.36,9.47-24.95,9.47
			c-9.62,0-17.21-3.12-22.77-9.37c-5.55-6.25-8.33-14.85-8.33-25.82c0-6.34,1.38-12.01,4.13-17.01c2.75-5,6.67-8.86,11.76-11.59
			c5.09-2.73,10.78-4.1,17.08-4.1c9.76,0,17.56,2.88,23.39,8.64C829.97,1128.49,832.88,1136.3,832.88,1146.16z M817.96,1147.76
			c0-18.97-5.6-28.46-16.8-28.46c-12.31,0-18.46,9.58-18.46,28.73c0,9.63,1.6,16.82,4.79,21.59c3.19,4.77,7.52,7.15,12.98,7.15
			c5.69,0,10.03-2.31,13.01-6.94C816.47,1165.2,817.96,1157.84,817.96,1147.76z"/>
		<path class="st0" d="M880.54,1108.4c0-6.57-0.25-10.87-0.76-12.91c-0.51-2.04-1.4-3.49-2.67-4.37c-1.27-0.88-4.01-1.53-8.22-1.94
			c-0.46,0-0.82-0.25-1.08-0.76c-0.26-0.51-0.38-1.06-0.38-1.67c0-1.39,0.49-2.08,1.46-2.08c5.41-0.51,10.67-1.2,15.76-2.08
			c3.98-0.69,6.36-1.04,7.15-1.04c0.74,0,1.28,0.21,1.63,0.62c0.35,0.42,0.52,0.86,0.52,1.32v79.89c0,2.41,0.05,4.41,0.14,6
			c0.09,1.6,0.45,2.89,1.08,3.89c0.62,1,1.61,1.78,2.95,2.36c1.34,0.58,3.26,1.05,5.76,1.42c0.97,0.19,1.46,0.95,1.46,2.29
			c0,1.29-0.49,1.94-1.46,1.94c-2.27,0-4.82-0.16-7.67-0.49c-2.85-0.32-5.68-0.49-8.5-0.49c-3.05,0-6.04,0.16-8.95,0.49
			c-2.92,0.32-5.9,0.49-8.95,0.49c-0.51,0-0.89-0.21-1.14-0.62c-0.26-0.42-0.38-0.88-0.38-1.39c0-1.29,0.56-2.04,1.67-2.22
			c3.01-0.32,5.23-0.81,6.66-1.46c1.43-0.65,2.45-1.63,3.05-2.95c0.6-1.32,0.9-4.13,0.9-8.43V1108.4z"/>
		<path class="st0" d="M972.27,1183.02c-1.16,0-1.87-0.19-2.15-0.56c-9.12-18.56-16.52-34.87-22.21-48.93
			c-1.71-4.26-3.03-7.04-3.96-8.36c-0.93-1.32-1.98-2.31-3.16-2.99c-1.18-0.67-2.74-1.14-4.69-1.42c-0.93-0.18-1.39-0.93-1.39-2.22
			c0-1.39,0.42-2.08,1.25-2.08c2.68,0,5.32,0.17,7.91,0.52c2.59,0.35,5.32,0.52,8.19,0.52c2.73,0,5.45-0.17,8.16-0.52
			c2.71-0.35,5.42-0.52,8.16-0.52c0.97,0,1.46,0.69,1.46,2.08c0,0.51-0.12,1.01-0.35,1.49c-0.23,0.49-0.6,0.73-1.11,0.73
			c-2.92,0.19-5.01,0.73-6.28,1.63c-1.27,0.9-1.91,2.21-1.91,3.92c0,1.39,0.37,3.12,1.11,5.21c4.63,12.45,9.32,23.41,14.09,32.9
			c0.18,0.42,0.44,0.63,0.76,0.63c0.42,0,0.72-0.21,0.9-0.63c4.58-9.99,8.86-21.52,12.84-34.57c0.37-1.25,0.56-2.43,0.56-3.54
			c0-2.41-0.74-3.89-2.22-4.44c-1.48-0.56-3.03-0.93-4.65-1.11c-0.46,0-0.8-0.22-1.01-0.66c-0.21-0.44-0.31-0.87-0.31-1.28
			c0-0.56,0.13-1.09,0.38-1.6c0.25-0.51,0.64-0.76,1.14-0.76c2.08,0,4.04,0.17,5.86,0.52c1.83,0.35,3.74,0.52,5.73,0.52
			c2.13,0,4.35-0.17,6.66-0.52c2.31-0.35,4.14-0.52,5.48-0.52c0.46,0,0.81,0.22,1.04,0.66c0.23,0.44,0.35,0.91,0.35,1.42
			c0,0.51-0.12,1.01-0.35,1.49c-0.23,0.49-0.53,0.73-0.9,0.73c-1.99,0.09-3.68,0.57-5.07,1.42c-1.39,0.86-2.59,2-3.61,3.44
			c-1.02,1.43-2.45,4.4-4.3,8.89c-6.34,15.64-13.12,31.63-20.34,47.96C974.17,1182.83,973.47,1183.02,972.27,1183.02z"/>
		<path class="st0" d="M1054.42,1144.35c-0.46,0-0.72,0.16-0.76,0.49c-0.05,0.32-0.07,0.72-0.07,1.18c0,8.7,1.95,15.35,5.87,19.95
			c3.91,4.61,9.54,6.91,16.9,6.91c7.54,0,13.4-1.5,17.56-4.51c0.28-0.28,0.58-0.42,0.9-0.42c0.46,0,0.95,0.32,1.46,0.97
			c0.51,0.65,0.76,1.18,0.76,1.6c0,0.79-1.34,2.4-4.03,4.82c-2.68,2.43-5.67,4.14-8.95,5.14c-3.29,0.99-7.2,1.49-11.73,1.49
			c-10.51,0-18.74-2.99-24.71-8.99c-5.97-5.99-8.95-14.31-8.95-24.95c0-6.25,1.38-11.98,4.13-17.21c2.75-5.23,6.58-9.32,11.49-12.29
			c4.9-2.96,10.37-4.44,16.38-4.44c7.82,0,14.18,2.56,19.09,7.67c4.9,5.11,7.36,11.65,7.36,19.61c0,1.99-0.72,2.99-2.15,2.99
			H1054.42z M1080.45,1139.36c0.93,0,1.58-0.25,1.98-0.76c0.39-0.51,0.59-1.87,0.59-4.09c0-4.17-1.23-7.76-3.68-10.79
			c-2.45-3.03-5.65-4.55-9.58-4.55c-4.35,0-7.87,1.4-10.55,4.2c-2.68,2.8-4.37,6.86-5.07,12.18l-0.21,2.29
			c0,1.02,0.21,1.53,0.62,1.53H1080.45z"/>
		<path class="st1" d="M1157.88,1163.37c0,4.58,0.25,7.57,0.76,8.95c0.51,1.39,1.4,2.44,2.67,3.16c1.27,0.72,3.2,1.24,5.8,1.56
			c0.97,0.19,1.46,0.95,1.46,2.29c0,1.29-0.49,1.94-1.46,1.94c-1.57,0-3.93-0.16-7.08-0.49c-3.15-0.32-5.95-0.49-8.4-0.49
			c-3.05,0-5.99,0.16-8.82,0.49c-2.82,0.32-5.44,0.49-7.84,0.49c-0.93,0-1.39-0.67-1.39-2.01c0-1.29,0.51-2.04,1.53-2.22
			c2.68-0.42,4.67-0.95,5.97-1.6c1.29-0.65,2.2-1.58,2.71-2.81c0.51-1.22,0.76-4.04,0.76-8.43v-21.03c0-7.82-0.27-12.79-0.8-14.92
			c-0.53-2.13-1.48-3.63-2.84-4.51c-1.37-0.88-3.48-1.41-6.35-1.6c-0.46,0-0.82-0.24-1.08-0.73c-0.26-0.49-0.38-1.01-0.38-1.56
			c0-1.3,0.49-1.94,1.46-1.94c4.3-0.23,8.68-0.79,13.12-1.67c4.26-0.79,6.66-1.18,7.22-1.18c1.99,0,2.98,1.09,2.98,3.26l-0.21,1.32
			c-0.79,4.07-1.18,6.52-1.18,7.36c0,0.19,0.07,0.28,0.21,0.28l0.35-0.28c0.97-1.9,2.64-3.89,5-5.97c2.36-2.08,5.05-3.76,8.09-5.03
			c3.03-1.27,6.26-1.91,9.68-1.91c10.69,0,17.49,4.67,20.41,14.02l0.35,0.35l0.42-0.35c2.31-4.16,5.73-7.54,10.24-10.13
			c4.51-2.59,9.2-3.89,14.06-3.89c7.5,0,13.01,2.02,16.55,6.07c3.54,4.05,5.31,10.93,5.31,20.65v22.56c0,4.63,0.22,7.64,0.66,9.02
			c0.44,1.39,1.2,2.43,2.29,3.12c1.09,0.69,2.72,1.2,4.89,1.53c1.02,0.19,1.53,0.93,1.53,2.22c0,0.51-0.13,0.97-0.38,1.39
			c-0.25,0.42-0.64,0.62-1.14,0.62c-1.53,0-3.47-0.16-5.83-0.49c-2.36-0.32-5.11-0.49-8.26-0.49c-3.05,0-5.96,0.16-8.71,0.49
			c-2.75,0.32-5.24,0.49-7.46,0.49c-0.51,0-0.89-0.21-1.14-0.62c-0.26-0.42-0.38-0.88-0.38-1.39c0-1.29,0.56-2.04,1.67-2.22
			c2.22-0.28,3.94-0.69,5.17-1.25c1.23-0.56,2.12-1.34,2.67-2.36c0.56-1.02,0.88-2.27,0.97-3.75c0.09-1.48,0.14-3.31,0.14-5.48
			v-18.32c0-6.15-0.41-10.72-1.21-13.71c-0.81-2.99-2.08-5.33-3.82-7.05c-1.73-1.71-4.13-2.57-7.18-2.57
			c-5.32,0-9.83,2.12-13.53,6.35c-3.7,4.23-5.55,9.34-5.55,15.3v19.16c0,4.95,0.2,8.08,0.59,9.37c0.39,1.3,1.07,2.25,2.05,2.85
			c0.97,0.6,2.71,1.09,5.21,1.46c1.02,0.19,1.53,0.93,1.53,2.22c0,0.51-0.13,0.97-0.38,1.39c-0.25,0.42-0.64,0.62-1.14,0.62
			c-1.53,0-3.47-0.16-5.83-0.49c-2.36-0.32-5.11-0.49-8.26-0.49c-3.05,0-5.96,0.16-8.71,0.49c-2.75,0.32-5.1,0.49-7.05,0.49
			c-0.42,0-0.74-0.2-0.97-0.59c-0.23-0.39-0.35-0.84-0.35-1.35c0-1.34,0.49-2.11,1.46-2.29c2.78-0.37,4.69-0.84,5.73-1.42
			c1.04-0.58,1.77-1.51,2.19-2.81c0.42-1.29,0.63-4.16,0.63-8.61v-18.32c0-8.61-1.1-14.65-3.3-18.12c-2.2-3.47-5.43-5.21-9.68-5.21
			c-5.83,0-10.34,1.79-13.53,5.38c-3.19,3.59-4.79,8.57-4.79,14.96V1163.37z"/>
		<path class="st1" d="M1345.4,1165.25c0,3.33,0.36,5.66,1.08,6.97c0.72,1.32,1.86,1.98,3.44,1.98c1.06,0,1.93-0.12,2.6-0.35
			c0.67-0.23,1.61-0.74,2.81-1.53l0.49-0.21c0.32,0,0.74,0.29,1.25,0.87c0.51,0.58,0.76,1.12,0.76,1.63c0,0.32-0.12,0.6-0.35,0.83
			c-1.62,1.94-3.54,3.52-5.76,4.72c-2.22,1.2-4.47,1.8-6.73,1.8c-2.92,0-5.36-0.57-7.32-1.7c-1.97-1.13-3.55-3.02-4.75-5.66
			c-0.09-0.23-0.23-0.35-0.42-0.35l-0.49,0.21c-3.05,2.5-6.12,4.37-9.2,5.62c-3.08,1.25-6.88,1.87-11.42,1.87
			c-5.46,0-9.68-1.43-12.67-4.3c-2.99-2.87-4.48-6.96-4.48-12.29c0-6.99,3.16-12.33,9.47-16.03c6.32-3.7,15.56-5.55,27.73-5.55
			c0.14,0,0.24-0.05,0.31-0.14c0.07-0.09,0.11-0.38,0.14-0.87c0.02-0.49,0.05-1.23,0.07-2.22c0.02-0.99,0.03-2.39,0.03-4.2
			c0-6.06-1.12-10.45-3.37-13.15c-2.25-2.71-5.66-4.06-10.24-4.06c-2.78,0-5.21,0.69-7.29,2.08c-2.08,1.39-3.12,3.17-3.12,5.34
			c0,0.97,0.32,1.99,0.97,3.05c0.69,0.97,1.04,1.99,1.04,3.05c0,1.3-0.68,2.57-2.05,3.82c-1.36,1.25-2.95,1.87-4.75,1.87
			c-2.59,0-4.43-0.69-5.52-2.08c-1.09-1.39-1.63-3.08-1.63-5.07c0-4.67,2.43-8.7,7.29-12.08c4.86-3.38,10.73-5.07,17.63-5.07
			c7.59,0,13.56,1.75,17.91,5.24c4.35,3.49,6.52,9.31,6.52,17.46V1165.25z M1332,1150.74c0-1.06-0.05-1.71-0.14-1.94
			c-0.09-0.23-0.32-0.35-0.69-0.35c-7.77,0.65-13.53,2.33-17.28,5.03c-3.75,2.71-5.62,6.14-5.62,10.31c0,3.29,0.8,5.8,2.39,7.53
			c1.6,1.74,3.9,2.6,6.91,2.6c3.28,0,6.51-0.84,9.68-2.53c3.17-1.69,4.75-3.27,4.75-4.75V1150.74z"/>
		<path class="st1" d="M1415.68,1163.37c0,2.36,0.07,4.33,0.21,5.9c0.14,1.57,0.64,2.86,1.49,3.85s2.2,1.78,4.03,2.36
			c1.83,0.58,4.41,1.1,7.74,1.56c0.97,0.19,1.46,0.9,1.46,2.15c0,0.56-0.15,1.04-0.45,1.46c-0.3,0.42-0.64,0.62-1.01,0.62
			c-4.07,0-7.67-0.16-10.79-0.49c-3.12-0.32-6.12-0.49-8.99-0.49c-3.01,0-6,0.16-8.99,0.49c-2.98,0.32-6,0.49-9.06,0.49
			c-0.93,0-1.39-0.69-1.39-2.08c0-1.25,0.51-1.97,1.53-2.15c3.01-0.42,5.26-0.98,6.77-1.7c1.5-0.72,2.56-1.7,3.16-2.95
			c0.6-1.25,0.9-3.98,0.9-8.19v-20.75c0-7.45-0.24-12.34-0.73-14.68c-0.49-2.34-1.4-3.98-2.74-4.93c-1.34-0.95-3.93-1.56-7.77-1.84
			c-0.46,0-0.81-0.23-1.04-0.69c-0.23-0.46-0.35-0.95-0.35-1.46c0-0.46,0.14-0.92,0.42-1.39c0.28-0.46,0.65-0.69,1.11-0.69
			c5.78-0.46,11.82-1.25,18.12-2.36l2.5-0.35c1.71,0,2.57,0.86,2.57,2.57l-0.42,9.37c0,0.19,0.09,0.28,0.28,0.28
			c0.18,0,0.32-0.09,0.42-0.28c1.62-4.16,3.88-7.36,6.77-9.58c2.89-2.22,6.74-3.33,11.56-3.33c3.98,0,6.92,0.94,8.82,2.81
			c1.9,1.87,2.85,4.34,2.85,7.39c0,1.71-0.61,3.25-1.84,4.62c-1.23,1.37-2.97,2.05-5.24,2.05c-2.18,0-3.69-0.52-4.55-1.56
			c-0.86-1.04-1.28-2.16-1.28-3.37c0-2.87-1.37-4.3-4.1-4.3c-1.99,0-3.89,0.81-5.69,2.43c-1.8,1.62-3.3,3.68-4.48,6.18
			c-1.18,2.5-1.77,4.61-1.77,6.32V1163.37z"/>
		<path class="st1" d="M1496.93,1158.72c0,5.27,0.59,9.2,1.77,11.76c1.18,2.57,3.34,3.85,6.49,3.85c2.22,0,4.29-0.34,6.21-1.01
			c1.92-0.67,3.39-1.38,4.41-2.12l0.56-0.14c0.42,0,0.88,0.24,1.39,0.73c0.51,0.49,0.76,1.01,0.76,1.56c0,0.65-0.87,1.84-2.6,3.57
			c-1.73,1.73-3.83,3.01-6.28,3.82c-2.45,0.81-5.25,1.21-8.4,1.21c-6.48,0-11.04-1.43-13.67-4.3c-2.64-2.87-3.96-7.4-3.96-13.6
			v-36.51c0-1.85-0.13-2.99-0.38-3.44c-0.26-0.44-0.73-0.75-1.42-0.94c-0.69-0.18-2.75-0.28-6.18-0.28c-0.32,0-0.59-0.34-0.8-1.01
			c-0.21-0.67-0.31-1.38-0.31-2.12c0-1.53,0.37-2.29,1.11-2.29c3.75-0.46,6.47-1.24,8.16-2.33c1.69-1.09,3.01-2.68,3.96-4.79
			c0.95-2.11,1.65-4.96,2.12-8.57c0.09-0.6,0.56-1.04,1.39-1.32s1.71-0.42,2.64-0.42c0.79,0,1.49,0.1,2.12,0.31
			c0.62,0.21,0.94,0.5,0.94,0.87v12.22c0,1.57,0.07,2.45,0.21,2.64c0.14,0.23,0.74,0.35,1.8,0.35h14.78c1.02,0,1.53,1.04,1.53,3.12
			c0,1.16-0.12,2-0.35,2.53c-0.23,0.53-0.67,0.8-1.32,0.8h-15.41c-0.69,0-1.07,0.16-1.11,0.49l-0.14,3.61V1158.72z"/>
	</g>
	<g>
		<path class="st1" d="M775.59,930.13c3.04-1.89,6.09-3.76,9.14-5.62l9.16-5.58l18.38-11.06l18.45-10.93
			c6.15-3.64,12.3-7.29,18.47-10.89l18.52-10.8l18.56-10.73c12.38-7.15,24.79-14.21,37.21-21.29l5.22-2.98l2.12,5.8
			c5.39,14.78,10.8,29.56,16.11,44.37c5.36,14.79,10.59,29.63,15.88,44.45l7.83,22.26c2.62,7.42,5.22,14.84,7.79,22.28l7.74,22.29
			l7.66,22.32l-6.92-3.82l29.58-6.55c9.86-2.19,19.73-4.31,29.6-6.44c19.74-4.27,39.51-8.42,59.29-12.53
			c19.79-4.06,39.58-8.11,59.43-11.92l14.88-2.9l14.9-2.81c9.93-1.88,19.88-3.69,29.84-5.43c-9.72,2.79-19.46,5.51-29.21,8.16
			l-14.63,3.99l-14.65,3.89c-19.52,5.24-39.09,10.25-58.66,15.26c-19.58,4.96-39.18,9.86-58.8,14.65c-9.81,2.4-19.62,4.8-29.44,7.15
			l-29.47,7.04l-5.13,1.22l-1.79-5.04l-7.91-22.23l-7.83-22.26c-2.62-7.42-5.21-14.85-7.78-22.28l-7.74-22.29
			c-5.09-14.89-10.24-29.75-15.26-44.66c-5.07-14.89-10.05-29.82-15.04-44.74l7.34,2.82c-12.65,6.65-25.29,13.31-37.97,19.9
			l-19.03,9.86l-19.07,9.8c-6.35,3.27-12.74,6.49-19.12,9.71l-19.14,9.66l-19.21,9.54l-9.63,4.72
			C782.03,927.03,778.81,928.59,775.59,930.13z"/>
		<path class="st0" d="M952.37,884.86c17.81-6.64,35.78-12.66,53.8-18.55c18.02-5.86,36.11-11.47,54.26-16.89
			c18.14-5.42,36.33-10.7,54.57-15.76c9.11-2.57,18.25-5.03,27.38-7.52l13.72-3.66c4.57-1.22,9.15-2.43,13.74-3.6l7.45-1.91
			l-0.17,7.49c-0.48,21.82-1.21,43.63-2.26,65.45c-0.5,10.91-1.14,21.81-1.84,32.72c-0.71,10.91-1.53,21.81-2.58,32.71
			c-0.89-10.92-1.56-21.83-2.12-32.75c-0.54-10.91-1.03-21.83-1.38-32.74c-0.74-21.83-1.16-43.65-1.34-65.47l7.28,5.58
			c-4.54,1.34-9.09,2.66-13.64,3.95l-13.65,3.9c-9.12,2.54-18.23,5.12-27.37,7.59c-18.26,5.01-36.57,9.8-54.93,14.46
			c-18.36,4.65-36.76,9.12-55.24,13.33C989.58,877.39,971.06,881.43,952.37,884.86z"/>
		<g>
			<circle class="st0" cx="1037.3" cy="1046.1" r="17.43"/>
			<circle class="st0" cx="1150.41" cy="1021.71" r="17.43"/>
		</g>
		<g>
			<g>
				<g>
					<line class="st1" x1="996.08" y1="919.8" x2="1133.56" y2="886.17"/>
					<path class="st1" d="M996.08,919.8c11.26-3.61,22.61-6.83,34-9.92c5.68-1.58,11.4-3.02,17.11-4.53l17.16-4.31l17.21-4.1
						c5.75-1.29,11.49-2.66,17.26-3.88c11.53-2.52,23.09-4.9,34.74-6.89c-11.26,3.61-22.61,6.84-34,9.92
						c-5.68,1.58-11.4,3.02-17.11,4.53l-17.16,4.31l-17.21,4.1c-5.75,1.3-11.49,2.66-17.26,3.88
						C1019.3,915.42,1007.74,917.8,996.08,919.8z"/>
				</g>
				<g>
					<line class="st1" x1="1002.36" y1="953.43" x2="1139.84" y2="919.8"/>
					<path class="st1" d="M1002.36,953.43c11.26-3.61,22.61-6.83,34-9.92c5.68-1.58,11.4-3.02,17.11-4.53l17.16-4.31l17.21-4.1
						c5.75-1.29,11.49-2.66,17.26-3.88c11.53-2.52,23.09-4.9,34.74-6.89c-11.26,3.61-22.61,6.84-34,9.92
						c-5.68,1.58-11.4,3.02-17.11,4.53l-17.16,4.31l-17.21,4.1c-5.75,1.3-11.49,2.66-17.26,3.88
						C1025.58,949.05,1014.02,951.43,1002.36,953.43z"/>
				</g>
				<g>
					<line class="st1" x1="1008.65" y1="987.06" x2="1146.12" y2="953.43"/>
					<path class="st1" d="M1008.65,987.06c11.26-3.61,22.61-6.83,34-9.92c5.68-1.58,11.4-3.02,17.11-4.53l17.16-4.31l17.21-4.1
						c5.75-1.29,11.49-2.66,17.26-3.88c11.53-2.52,23.09-4.9,34.74-6.89c-11.26,3.61-22.61,6.84-34,9.92
						c-5.68,1.58-11.4,3.02-17.11,4.53l-17.16,4.31l-17.21,4.1c-5.75,1.3-11.49,2.66-17.26,3.88
						C1031.86,982.68,1020.3,985.06,1008.65,987.06z"/>
				</g>
			</g>
			<g>
				<g>
					<line class="st1" x1="1087.92" y1="861.59" x2="1121.55" y2="999.07"/>
					<path class="st1" d="M1087.92,861.59c3.61,11.26,6.83,22.61,9.92,34c1.58,5.68,3.02,11.4,4.53,17.11l4.31,17.16l4.1,17.21
						c1.29,5.75,2.66,11.49,3.88,17.26c2.52,11.53,4.9,23.09,6.89,34.74c-3.61-11.26-6.84-22.61-9.92-34
						c-1.58-5.68-3.02-11.4-4.53-17.11l-4.31-17.16l-4.1-17.21c-1.3-5.75-2.66-11.49-3.88-17.26
						C1092.3,884.81,1089.92,873.25,1087.92,861.59z"/>
				</g>
				<g>
					<line class="st1" x1="1054.29" y1="867.87" x2="1087.92" y2="1005.35"/>
					<path class="st1" d="M1054.29,867.87c3.61,11.26,6.83,22.61,9.92,34c1.58,5.68,3.02,11.4,4.53,17.11l4.31,17.16l4.1,17.21
						c1.29,5.75,2.66,11.49,3.88,17.26c2.52,11.53,4.9,23.09,6.89,34.74c-3.61-11.26-6.84-22.61-9.92-34
						c-1.58-5.68-3.02-11.4-4.53-17.11l-4.31-17.16l-4.1-17.21c-1.3-5.75-2.66-11.49-3.88-17.26
						C1058.67,891.09,1056.29,879.53,1054.29,867.87z"/>
				</g>
				<g>
					<line class="st1" x1="1020.66" y1="874.15" x2="1054.29" y2="1011.63"/>
					<path class="st1" d="M1020.66,874.15c3.61,11.26,6.83,22.61,9.92,34c1.58,5.68,3.02,11.4,4.53,17.11l4.31,17.16l4.1,17.21
						c1.29,5.75,2.66,11.49,3.88,17.26c2.52,11.53,4.9,23.09,6.89,34.74c-3.61-11.26-6.84-22.61-9.92-34
						c-1.58-5.68-3.02-11.4-4.53-17.11l-4.31-17.16l-4.1-17.21c-1.3-5.75-2.66-11.49-3.88-17.26
						C1025.04,897.37,1022.66,885.81,1020.66,874.15z"/>
				</g>
			</g>
		</g>
	</g>
</g>
</svg>
