<svg id="Layer_1" data-name="Layer 1" xmlns="http://www.w3.org/2000/svg" viewBox="0 0 1037.03 101.48"><defs><style>.cls-1{fill:#fbb03b;}.cls-2{fill:#1a1a1a;}</style></defs><path class="cls-1" d="M479.33,980.36c0,2.36.07,4.32.21,5.9a6.63,6.63,0,0,0,1.49,3.85,8.69,8.69,0,0,0,4,2.36A48.84,48.84,0,0,0,492.8,994c1,.19,1.45.9,1.45,2.15a2.43,2.43,0,0,1-.45,1.46,1.23,1.23,0,0,1-1,.62,107.27,107.27,0,0,1-10.8-.48,85.55,85.55,0,0,0-9-.49,81.61,81.61,0,0,0-9,.49,85.08,85.08,0,0,1-9.06.48c-.93,0-1.39-.69-1.39-2.08s.51-2,1.53-2.15a24.24,24.24,0,0,0,6.76-1.7,6.35,6.35,0,0,0,3.16-3q.9-1.87.9-8.19V960.44q0-11.18-.72-14.68a7.63,7.63,0,0,0-2.75-4.93q-2-1.43-7.77-1.84a1.11,1.11,0,0,1-1-.69,3.27,3.27,0,0,1-.35-1.46,2.64,2.64,0,0,1,.42-1.39,1.26,1.26,0,0,1,1.11-.69q8.67-.71,18.12-2.37l2.49-.34a2.27,2.27,0,0,1,2.57,2.57l-.42,9.37a.25.25,0,0,0,.28.27.44.44,0,0,0,.42-.27,21.48,21.48,0,0,1,6.77-9.58q4.33-3.33,11.55-3.33c4,0,6.92.93,8.82,2.81a9.91,9.91,0,0,1,2.84,7.39,6.64,6.64,0,0,1-7.08,6.66c-2.17,0-3.69-.52-4.54-1.56a5.18,5.18,0,0,1-1.29-3.37c0-2.86-1.36-4.3-4.09-4.3a8.43,8.43,0,0,0-5.69,2.43,19.09,19.09,0,0,0-4.48,6.18,15.46,15.46,0,0,0-1.77,6.31Z" transform="translate(-453.3 -898.52)"/><path class="cls-1" d="M557.87,961.34c-.46,0-.71.16-.76.48A8,8,0,0,0,557,963q0,13.05,5.87,20t16.9,6.91q11.31,0,17.56-4.52a1.27,1.27,0,0,1,.9-.41,2,2,0,0,1,1.46,1,2.87,2.87,0,0,1,.76,1.6q0,1.17-4,4.82a23.28,23.28,0,0,1-9,5.14A40.86,40.86,0,0,1,575.78,999q-15.75,0-24.71-9t-9-25a36.32,36.32,0,0,1,4.13-17.22,30.86,30.86,0,0,1,27.87-16.72q11.71,0,19.08,7.67t7.36,19.6c0,2-.72,3-2.15,3Zm26-5a2.34,2.34,0,0,0,2-.76c.39-.51.59-1.88.59-4.1a16.64,16.64,0,0,0-3.68-10.79,11.74,11.74,0,0,0-9.58-4.55,14,14,0,0,0-10.55,4.2q-4,4.2-5.06,12.18l-.21,2.29c0,1,.21,1.53.62,1.53Z" transform="translate(-453.3 -898.52)"/><path class="cls-1" d="M670.36,1000c-1.16,0-1.88-.19-2.15-.56Q654.53,971.62,646,950.51a49.62,49.62,0,0,0-4-8.36,9.9,9.9,0,0,0-3.16-3,13.42,13.42,0,0,0-4.68-1.42c-.93-.18-1.39-.93-1.39-2.22s.41-2.08,1.25-2.08A59,59,0,0,1,642,934a62.9,62.9,0,0,0,8.19.52,65.5,65.5,0,0,0,8.16-.52,63.37,63.37,0,0,1,8.15-.52c1,0,1.46.69,1.46,2.08a3.46,3.46,0,0,1-.35,1.49,1.15,1.15,0,0,1-1.11.73q-4.38.28-6.28,1.63a4.51,4.51,0,0,0-1.91,3.92,16.2,16.2,0,0,0,1.11,5.21,329.18,329.18,0,0,0,14.09,32.9c.18.41.44.62.76.62a1,1,0,0,0,.91-.62A278.56,278.56,0,0,0,688,946.83a12.48,12.48,0,0,0,.55-3.54q0-3.6-2.22-4.44a20,20,0,0,0-4.65-1.11,1.06,1.06,0,0,1-1-.66,3.12,3.12,0,0,1-.31-1.28,3.59,3.59,0,0,1,.38-1.6,1.23,1.23,0,0,1,1.15-.76,31.09,31.09,0,0,1,5.86.52,31.31,31.31,0,0,0,5.73.52,45.81,45.81,0,0,0,6.66-.52,38.77,38.77,0,0,1,5.49-.52,1.11,1.11,0,0,1,1,.66,3,3,0,0,1,.35,1.42,3.46,3.46,0,0,1-.35,1.49c-.23.49-.53.73-.9.73a10.48,10.48,0,0,0-5.07,1.42,12.4,12.4,0,0,0-3.61,3.44,52.34,52.34,0,0,0-4.3,8.88q-9.51,23.46-20.34,48C672.25,999.81,671.56,1000,670.36,1000Z" transform="translate(-453.3 -898.52)"/><path class="cls-1" d="M804.7,963.14q0,16.88-9.05,26.34t-25,9.48q-14.43,0-22.76-9.37t-8.33-25.82a34.71,34.71,0,0,1,4.13-17,28.55,28.55,0,0,1,11.76-11.59,35.57,35.57,0,0,1,17.08-4.09q14.64,0,23.39,8.64T804.7,963.14Zm-14.92,1.6q0-28.46-16.79-28.46-18.47,0-18.47,28.74,0,14.43,4.79,21.58t13,7.15a14.55,14.55,0,0,0,13-6.94Q789.78,979.88,789.78,964.74Z" transform="translate(-453.3 -898.52)"/><path class="cls-1" d="M852.36,925.39q0-9.85-.76-12.91a7.15,7.15,0,0,0-2.68-4.38c-1.27-.88-4-1.52-8.22-1.94a1.19,1.19,0,0,1-1.08-.76,3.76,3.76,0,0,1-.38-1.67c0-1.39.49-2.08,1.46-2.08q8.12-.76,15.76-2.08a67.34,67.34,0,0,1,7.14-1.05,2,2,0,0,1,1.64.63,2.08,2.08,0,0,1,.52,1.32v79.89q0,3.6.13,6a8.28,8.28,0,0,0,1.08,3.89,6.3,6.3,0,0,0,2.95,2.36,24,24,0,0,0,5.76,1.42c1,.19,1.46,1,1.46,2.29s-.49,1.94-1.46,1.94a69.34,69.34,0,0,1-7.67-.48,73.66,73.66,0,0,0-8.5-.49,79.49,79.49,0,0,0-9,.49,82.12,82.12,0,0,1-9,.48,1.23,1.23,0,0,1-1.14-.62,2.58,2.58,0,0,1-.39-1.39,2,2,0,0,1,1.67-2.22,23,23,0,0,0,6.66-1.46,5.81,5.81,0,0,0,3.06-3q.9-2,.9-8.43Z" transform="translate(-453.3 -898.52)"/><path class="cls-1" d="M944.09,1000c-1.16,0-1.87-.19-2.15-.56q-13.68-27.83-22.21-48.93a48.61,48.61,0,0,0-4-8.36,9.8,9.8,0,0,0-3.16-3,13.42,13.42,0,0,0-4.68-1.42c-.93-.18-1.39-.93-1.39-2.22s.42-2.08,1.25-2.08a59,59,0,0,1,7.91.52,62.9,62.9,0,0,0,8.19.52,65.5,65.5,0,0,0,8.16-.52,63.48,63.48,0,0,1,8.15-.52c1,0,1.46.69,1.46,2.08a3.45,3.45,0,0,1-.34,1.49,1.17,1.17,0,0,1-1.12.73q-4.37.28-6.28,1.63a4.51,4.51,0,0,0-1.91,3.92,16.2,16.2,0,0,0,1.11,5.21,331.53,331.53,0,0,0,14.09,32.9c.19.41.44.62.77.62a1,1,0,0,0,.9-.62,278.56,278.56,0,0,0,12.84-34.57,12.51,12.51,0,0,0,.56-3.54c0-2.4-.75-3.88-2.23-4.44a20,20,0,0,0-4.64-1.11,1,1,0,0,1-1-.66,3,3,0,0,1-.31-1.28,3.46,3.46,0,0,1,.38-1.6,1.21,1.21,0,0,1,1.14-.76,31.27,31.27,0,0,1,5.87.52,31.2,31.2,0,0,0,5.72.52,46.05,46.05,0,0,0,6.67-.52,38.65,38.65,0,0,1,5.48-.52,1.11,1.11,0,0,1,1,.66,3,3,0,0,1,.35,1.42,3.46,3.46,0,0,1-.35,1.49c-.23.49-.53.73-.9.73a10.48,10.48,0,0,0-5.07,1.42,12.4,12.4,0,0,0-3.61,3.44,52.34,52.34,0,0,0-4.3,8.88q-9.51,23.46-20.34,48C946,999.81,945.29,1000,944.09,1000Z" transform="translate(-453.3 -898.52)"/><path class="cls-1" d="M1026.24,961.34c-.46,0-.72.16-.76.48a8,8,0,0,0-.07,1.18q0,13.05,5.87,20t16.9,6.91q11.31,0,17.56-4.52a1.25,1.25,0,0,1,.9-.41,2,2,0,0,1,1.46,1,2.94,2.94,0,0,1,.76,1.6q0,1.17-4,4.82a23.28,23.28,0,0,1-8.95,5.14,41,41,0,0,1-11.73,1.49q-15.76,0-24.71-9t-9-25a36.32,36.32,0,0,1,4.13-17.22,30.86,30.86,0,0,1,27.86-16.72q11.73,0,19.09,7.67t7.36,19.6c0,2-.72,3-2.15,3Zm26-5a2.35,2.35,0,0,0,2-.76c.39-.51.59-1.88.59-4.1a16.64,16.64,0,0,0-3.68-10.79,11.75,11.75,0,0,0-9.58-4.55,13.94,13.94,0,0,0-10.55,4.2q-4,4.2-5.07,12.18l-.2,2.29c0,1,.2,1.53.62,1.53Z" transform="translate(-453.3 -898.52)"/><path class="cls-2" d="M1129.7,980.36q0,6.87.77,8.95a5.82,5.82,0,0,0,2.67,3.16,16.22,16.22,0,0,0,5.79,1.56c1,.19,1.46,1,1.46,2.29s-.48,1.94-1.46,1.94q-2.36,0-7.08-.48a81.14,81.14,0,0,0-8.39-.49,75.91,75.91,0,0,0-8.82.49,70,70,0,0,1-7.84.48c-.93,0-1.39-.67-1.39-2s.51-2,1.53-2.22a21.57,21.57,0,0,0,6-1.6,5.39,5.39,0,0,0,2.7-2.81q.77-1.83.77-8.43v-21q0-11.73-.8-14.92a7.12,7.12,0,0,0-2.85-4.52,13.68,13.68,0,0,0-6.35-1.59,1.18,1.18,0,0,1-1.07-.73,3.28,3.28,0,0,1-.39-1.56c0-1.3.49-2,1.46-2a92.85,92.85,0,0,0,13.12-1.66c4.26-.79,6.66-1.18,7.22-1.18q3,0,3,3.26l-.21,1.32a63.66,63.66,0,0,0-1.18,7.36q0,.27.21.27l.35-.27a21.25,21.25,0,0,1,5-6,29.18,29.18,0,0,1,8.08-5,24.64,24.64,0,0,1,9.69-1.91q16,0,20.4,14l.35.34.42-.34A26.45,26.45,0,0,1,1183,935a27.89,27.89,0,0,1,14.06-3.88q11.24,0,16.55,6.07T1219,957.8v22.56q0,6.93.66,9a5.49,5.49,0,0,0,2.29,3.12,12.67,12.67,0,0,0,4.9,1.53c1,.19,1.52.93,1.52,2.22a2.66,2.66,0,0,1-.38,1.39,1.24,1.24,0,0,1-1.14.62,45,45,0,0,1-5.83-.48,60.54,60.54,0,0,0-8.26-.49,73.15,73.15,0,0,0-8.71.49,65.45,65.45,0,0,1-7.47.48,1.23,1.23,0,0,1-1.14-.62,2.57,2.57,0,0,1-.38-1.39,1.94,1.94,0,0,1,1.66-2.22,18.39,18.39,0,0,0,5.17-1.25,5.48,5.48,0,0,0,2.68-2.36,9.15,9.15,0,0,0,1-3.75c.09-1.48.14-3.31.14-5.48V962.87q0-9.24-1.22-13.71a15.27,15.27,0,0,0-3.82-7,9.78,9.78,0,0,0-7.18-2.57,17.34,17.34,0,0,0-13.54,6.36,22.44,22.44,0,0,0-5.55,15.3v19.16q0,7.42.59,9.37a4.87,4.87,0,0,0,2,2.84,14.92,14.92,0,0,0,5.21,1.46c1,.19,1.52.93,1.52,2.22a2.57,2.57,0,0,1-.38,1.39,1.24,1.24,0,0,1-1.14.62,45,45,0,0,1-5.83-.48,60.54,60.54,0,0,0-8.26-.49,73.15,73.15,0,0,0-8.71.49,62.7,62.7,0,0,1-7.05.48,1.06,1.06,0,0,1-1-.59,2.61,2.61,0,0,1-.35-1.35c0-1.34.49-2.1,1.46-2.29a17.9,17.9,0,0,0,5.72-1.42,4.7,4.7,0,0,0,2.19-2.81q.63-1.95.63-8.61V962.87q0-12.92-3.3-18.12a10.76,10.76,0,0,0-9.68-5.21q-8.74,0-13.54,5.38t-4.79,15Z" transform="translate(-453.3 -898.52)"/><path class="cls-2" d="M1317.22,982.23q0,5,1.07,7a3.63,3.63,0,0,0,3.44,2,8.19,8.19,0,0,0,2.6-.34,13.94,13.94,0,0,0,2.81-1.53l.49-.21c.32,0,.74.29,1.25.87a2.54,2.54,0,0,1,.76,1.63,1.12,1.12,0,0,1-.34.83,19.34,19.34,0,0,1-5.77,4.72,13.91,13.91,0,0,1-6.73,1.81,14.52,14.52,0,0,1-7.32-1.7,12,12,0,0,1-4.76-5.66c-.09-.23-.23-.35-.41-.35l-.49.21a36.05,36.05,0,0,1-9.19,5.62,30.48,30.48,0,0,1-11.42,1.88q-8.19,0-12.67-4.3t-4.48-12.29q0-10.49,9.48-16t27.73-5.56a.34.34,0,0,0,.31-.14,2.24,2.24,0,0,0,.14-.86c0-.49,0-1.23.07-2.22s0-2.4,0-4.2q0-9.09-3.36-13.16t-10.24-4.06a12.81,12.81,0,0,0-7.29,2.09,6.21,6.21,0,0,0-3.12,5.34,5.85,5.85,0,0,0,1,3,5.23,5.23,0,0,1,1,3.06,5.29,5.29,0,0,1-2,3.82,6.85,6.85,0,0,1-4.75,1.87q-3.88,0-5.52-2.08a8,8,0,0,1-1.63-5.07q0-7,7.29-12.08t17.63-5.06q11.37,0,17.9,5.24t6.53,17.45Zm-13.4-14.51a7.15,7.15,0,0,0-.14-1.94c-.09-.23-.32-.35-.69-.35q-11.65,1-17.28,5t-5.62,10.3c0,3.29.79,5.8,2.39,7.53s3.9,2.61,6.91,2.61a20.38,20.38,0,0,0,9.68-2.54c3.17-1.68,4.75-3.27,4.75-4.75Z" transform="translate(-453.3 -898.52)"/><path class="cls-2" d="M1387.5,980.36c0,2.36.07,4.32.21,5.9a6.63,6.63,0,0,0,1.49,3.85,8.69,8.69,0,0,0,4,2.36A48.84,48.84,0,0,0,1401,994c1,.19,1.45.9,1.45,2.15a2.43,2.43,0,0,1-.45,1.46,1.23,1.23,0,0,1-1,.62,107.27,107.27,0,0,1-10.8-.48,85.55,85.55,0,0,0-9-.49,81.61,81.61,0,0,0-9,.49,85.08,85.08,0,0,1-9.06.48c-.93,0-1.39-.69-1.39-2.08s.51-2,1.53-2.15a24.24,24.24,0,0,0,6.76-1.7,6.35,6.35,0,0,0,3.16-3q.9-1.87.9-8.19V960.44q0-11.18-.72-14.68a7.63,7.63,0,0,0-2.75-4.93q-2-1.43-7.77-1.84a1.11,1.11,0,0,1-1-.69,3.27,3.27,0,0,1-.35-1.46,2.64,2.64,0,0,1,.42-1.39,1.26,1.26,0,0,1,1.11-.69q8.67-.71,18.12-2.37l2.49-.34a2.27,2.27,0,0,1,2.57,2.57l-.41,9.37a.24.24,0,0,0,.27.27.44.44,0,0,0,.42-.27,21.48,21.48,0,0,1,6.77-9.58q4.33-3.33,11.55-3.33c4,0,6.92.93,8.82,2.81a9.91,9.91,0,0,1,2.84,7.39,6.64,6.64,0,0,1-7.08,6.66c-2.17,0-3.69-.52-4.54-1.56a5.18,5.18,0,0,1-1.29-3.37c0-2.86-1.36-4.3-4.09-4.3a8.43,8.43,0,0,0-5.69,2.43,19.09,19.09,0,0,0-4.48,6.18,15.46,15.46,0,0,0-1.77,6.31Z" transform="translate(-453.3 -898.52)"/><path class="cls-2" d="M1468.75,975.71q0,7.9,1.77,11.76t6.49,3.85a18.72,18.72,0,0,0,6.21-1,17.45,17.45,0,0,0,4.41-2.12l.55-.14a2.13,2.13,0,0,1,1.39.73,2.17,2.17,0,0,1,.77,1.56q0,1-2.61,3.58a15.54,15.54,0,0,1-6.28,3.81,26.72,26.72,0,0,1-8.4,1.22q-9.71,0-13.67-4.3t-4-13.61V944.54a8.83,8.83,0,0,0-.38-3.43,2.21,2.21,0,0,0-1.42-.94,37.46,37.46,0,0,0-6.18-.28c-.32,0-.59-.33-.8-1a7.27,7.27,0,0,1-.31-2.11c0-1.53.37-2.29,1.11-2.29q5.63-.69,8.16-2.33a10.63,10.63,0,0,0,4-4.79,30.75,30.75,0,0,0,2.12-8.57c.09-.6.56-1,1.39-1.32a8.2,8.2,0,0,1,2.64-.41,6.59,6.59,0,0,1,2.11.31c.63.21.94.5.94.87v12.21a8,8,0,0,0,.21,2.64c.14.23.74.35,1.8.35h14.79c1,0,1.52,1,1.52,3.12a6.82,6.82,0,0,1-.34,2.53,1.29,1.29,0,0,1-1.32.8H1470c-.69,0-1.06.16-1.11.49l-.14,3.61Z" transform="translate(-453.3 -898.52)"/></svg>